PathFileType	4	(X/Y/Z)	/home/abdul/Desktop/myosuite/custom_workspace/IK/output/S16_12_3.trc
DataRate	CameraRate	NumFrames	NumMarkers	Units	OrigDataRate	OrigDataStartFrame	OrigNumFrames
200.0	200.0	28	3	mm	200.0	916	1220
Frame#	Time	V_Shoulder			V_Elbow			V_Wrist		
		X1	Y1	Z1	X2	Y2	Z2	X3	Y3	Z3

916	4.575	-114.58041457876226	576.2801311276615	304.9947076553346	-266.51722823335604	440.49294365280707	48.359038950468985	-174.82827589208512	238.69225907655988	84.30539739533438
917	4.58	-114.59125366780593	576.5267079755066	305.00060206279414	-266.9955408743427	441.53585788902797	48.21835751062986	-176.7450001979019	240.29999369052734	84.52176336088402
918	4.585	-114.60525465575893	576.7777959916507	305.00378379695763	-267.47019420511947	442.59124458285925	48.07294179588868	-178.66788707940032	241.93157930373587	84.70726908493758
919	4.59	-114.6225502073574	577.0333511618968	305.0041679287269	-267.94068674152214	443.6583853674317	47.92276968508692	-180.59529117369016	243.58589143606937	84.86147810905983
920	4.595	-114.64327176753498	577.2933241137744	305.00167222804845	-268.40652303431926	444.7365412549076	47.76782128128002	-182.52555749993624	245.26176540258388	84.98401664357948
921	4.6	-114.66754936671327	577.557660088718	304.9962173205884	-268.86721465738646	445.824953956168	47.608078835740436	-184.457024646428	246.95799850115932	85.07457429300757
922	4.605	-114.69551142607422	577.8262989263635	304.98772684068445	-269.3222811764122	446.92284724897195	47.4435266775013	-186.38802796750764	248.67335229561962	85.13290458450103
923	4.61	-114.72728456313602	578.099175061226	304.97612758028663	-269.7712510957126	448.0294283907547	47.274151149263915	-188.31690278162904	250.40655498739375	85.15882529807067
924	4.615	-114.76299339795789	578.3762175319782	304.9613496336031	-270.21366278083235	449.14388957208604	47.09994055045769	-190.24198756185785	252.1563038685173	85.15221859805038
925	4.62	-114.80276036029802	578.657350003523	304.94332653717555	-270.6490653547162	450.2654094066818	46.92088508820292	-192.1616271101912	253.9212678485281	85.11303096616587
926	4.625	-114.8467054980503	578.9424908020123	304.9219954051169	-271.07701956534845	451.3931544537443	46.736976836882285	-194.0741757071738	255.70009004759768	85.0412729373597
927	4.63	-114.89494628728572	579.2315529629306	304.89729705925373	-271.4970986228774	452.5262807683136	46.54820970697827	-195.9780002284147	257.4913904480617	84.93701864034377
928	4.635	-114.94759744422208	579.5244442923209	304.8691761539219	-271.90888900436295	453.66393547522875	46.354579423780116	-197.8714832197662	259.29376859636443	84.80040514565425
929	4.64	-115.00477073944512	579.8210674411981	304.83758129517673	-272.31199122441564	454.8052583622374	46.156083516505326	-199.7530259231095	261.10580634732327	84.63163162477474
930	4.645	-115.0665748147016	580.1213199931481	304.8024651541859	-272.7060205701235	455.94938348774235	45.952721318318254	-201.62105124490466	262.9260706425366	84.43095832466572
931	4.65	-115.13311500258187	580.4250945650781	304.7637845745845	-273.09060779879695	457.09544079865077	45.74449397766135	-203.4740066598992	264.753116314719	84.19870536279016
932	4.655	-115.2044931494063	580.7322789210407	304.721500673583	-273.46539979719824	458.2425577537763	45.531404481243456	-205.31036704265188	266.5854889097328	83.9352513484499
933	4.66	-115.28080744162548	581.0427560990134	304.6755789366266	-273.83006020105546	459.38986094825526	45.31345768895534	-207.1286374198154	268.4217275181104	83.6410318369439
934	4.665	-115.36215223603979	581.3564045504768	304.6259893054193	-274.1842699738013	460.53647773446176	45.090660380904545	-208.9273556364281	270.2603676079172	83.31653762372275
935	4.67	-115.44861789413801	581.6730982925923	304.57270625913344	-274.52772794360936	461.6815378349471	44.863021316680886	-210.70509492979508	272.09994385089124	82.96231288634031
936	4.675	-115.54029062084943	581.9927070727412	304.5157088886403	-274.86015129794106	462.8241749429892	44.63055130688042	-212.46046640488527	273.9389929339162	82.57895318259102
937	4.68	-115.63725230799668	582.315096545148	304.45498096360416	-275.18127603494656	463.96352830641194	44.39326329683041	-214.1921214055389	275.77605634803297	82.16710331376541
938	4.685	-115.73958038272987	582.6401284592671	304.39051099230164	-275.490857371199	465.0987442904261	44.15117246237042	-215.8987537761597	277.6096831473702	81.72745506245577
939	4.69	-115.84734766121494	582.9676608595777	304.3222922740308	-275.78867010537016	466.22897791534984	43.90429631745627	-217.57910200896183	279.43843267058406	81.26074481479472
940	4.695	-115.96062220784086	583.2975482963911	304.2503229439944	-276.07450893758283	467.35339436518717	43.65265483326451	-219.23195127225003	281.2608772176233	80.76775107740994
941	4.7	-116.07946720020175	583.6296420472376	304.17460601054887	-276.3481887442986	468.4711704631791	43.39627056838572	-220.85613531563	283.0756046748935	80.24929189972669
942	4.705	-116.20394080010043	583.9637903483617	304.09514938472677	-276.609544808722	469.58149611058997	43.135168809606	-222.45053824847184	284.88122108217	79.70622221254379
943	4.71	-116.33409603081071	584.2998386358253	304.01196590194786	-276.8584330068138	470.68357568515285	42.869377722687965	-224.01409618838454	286.6763531349095	79.13943109404762
